<?xml version="1.0" standalone="no"?>
<!DOCTYPE svg PUBLIC "-//W3C//DTD SVG 20010904//EN"
 "http://www.w3.org/TR/2001/REC-SVG-20010904/DTD/svg10.dtd">
<svg version="1.0" xmlns="http://www.w3.org/2000/svg"
 width="300.000000pt" height="300.000000pt" viewBox="0 0 300.000000 300.000000"
 preserveAspectRatio="xMidYMid meet">
<metadata>
Created by potrace 1.10, written by Peter Selinger 2001-2011
</metadata>
<g transform="translate(0.000000,300.000000) scale(0.100000,-0.100000)"
fill="#000000" stroke="none">
<path d="M2512 2625 c-44 -37 -58 -77 -42 -124 7 -21 11 -44 9 -50 -2 -6 -34
-46 -70 -88 -249 -291 -419 -497 -419 -509 0 -23 17 -16 47 20 94 111 486 536
496 537 7 0 33 0 60 -1 42 -1 52 3 82 33 29 29 35 42 35 76 0 82 -49 131 -129
131 -27 0 -48 -8 -69 -25z m92 -26 c24 -11 42 -37 32 -46 -2 -3 -14 1 -26 7
-12 7 -38 10 -56 8 -39 -5 -43 4 -12 26 27 19 30 19 62 5z m-7 -73 c24 -4 44
-2 48 4 11 18 25 11 25 -13 0 -42 -35 -67 -94 -67 l-54 0 -10 40 c-11 44 -8
51 22 45 12 -2 40 -6 63 -9z"/>
<path d="M2754 2254 c-38 -19 -64 -62 -64 -107 0 -31 -6 -39 -42 -61 -24 -15
-160 -98 -302 -185 -232 -141 -289 -181 -258 -181 9 0 252 139 494 281 64 38
123 69 131 69 8 0 20 -7 27 -14 24 -30 74 -38 118 -21 52 21 72 52 72 111 0
41 -5 51 -39 85 -43 44 -82 50 -137 23z m96 -54 c11 -11 20 -27 20 -36 0 -13
-5 -12 -26 5 -16 12 -41 21 -62 21 -29 0 -33 2 -22 15 18 21 66 19 90 -5z
m-28 -59 c21 -7 42 -10 47 -6 21 13 21 -18 0 -41 -42 -44 -139 -20 -139 35 0
35 7 42 33 32 12 -5 39 -14 59 -20z"/>
<path d="M1085 2203 c-117 -42 -184 -102 -239 -211 -30 -59 -56 -177 -56 -251
0 -202 178 -732 255 -761 31 -12 207 2 313 25 231 49 370 90 430 127 l35 22
-19 -34 c-36 -64 -187 -205 -300 -279 -95 -64 -331 -188 -389 -205 -15 -4 -56
19 -150 85 -71 50 -168 111 -215 137 -253 138 -465 149 -586 28 -118 -117 -51
-262 152 -328 194 -64 457 -55 705 23 l69 22 53 -36 c105 -69 211 -113 357
-149 36 -8 117 -13 235 -12 150 0 197 4 280 23 158 36 147 37 201 -2 49 -35
178 -87 215 -87 42 0 11 21 -69 49 -46 16 -102 41 -125 56 l-41 28 70 23 c160
54 304 145 304 193 0 36 -25 44 -118 38 -184 -11 -319 -100 -310 -205 l3 -36
-95 -23 c-260 -62 -548 -45 -748 43 -61 27 -172 95 -172 105 0 4 12 10 27 14
40 10 250 117 329 167 157 101 274 212 346 330 20 33 53 72 73 87 80 59 148
173 167 281 13 74 0 168 -33 232 -24 47 -86 111 -131 134 -84 44 -206 56 -294
29 -68 -21 -71 -20 -78 23 -3 21 -22 71 -41 110 -61 122 -161 190 -289 198
-52 3 -84 0 -121 -13z m169 -22 c3 -4 -6 -19 -21 -32 -14 -13 -47 -56 -73 -95
-123 -188 -150 -417 -71 -620 17 -43 28 -80 26 -84 -2 -3 -20 -4 -40 -2 -34 4
-39 9 -61 59 -92 207 -85 421 18 615 24 44 61 100 84 124 36 40 45 44 87 44
25 0 48 -4 51 -9z m-157 -14 c-2 -7 -29 -47 -59 -89 -39 -53 -64 -102 -84
-164 -26 -81 -29 -101 -28 -219 1 -134 6 -161 55 -272 12 -29 20 -55 17 -59
-8 -7 -78 4 -97 15 -7 5 -26 62 -43 127 -77 310 -8 552 182 647 62 31 64 31
57 14z m241 -17 c17 -11 32 -25 32 -31 0 -6 -15 -29 -34 -51 -70 -82 -124
-222 -141 -370 -8 -70 10 -203 37 -275 11 -30 17 -57 14 -60 -3 -3 -25 -8 -50
-10 l-46 -6 -21 49 c-30 72 -59 200 -59 267 0 70 24 191 51 261 32 80 151 246
177 246 4 0 22 -9 40 -20z m100 -94 c37 -52 40 -66 12 -66 -18 0 -85 -21 -142
-45 -10 -4 -18 -3 -18 2 0 14 99 153 109 153 4 0 22 -20 39 -44z m51 -100 c7
-8 15 -30 18 -49 5 -35 5 -36 -38 -47 -64 -17 -110 -43 -177 -99 -33 -28 -62
-48 -65 -45 -6 6 19 117 35 158 12 30 81 67 157 85 52 13 57 13 70 -3z m272
-120 c55 -41 121 -126 155 -197 46 -95 68 -251 43 -316 -10 -27 -56 -83 -69
-83 -3 0 -2 27 4 59 28 173 -95 426 -252 518 -43 26 -45 37 -7 46 53 13 83 6
126 -27z m96 4 c61 -27 137 -102 164 -163 29 -67 32 -180 6 -249 -10 -27 -23
-48 -28 -48 -5 0 -9 25 -9 55 0 136 -49 252 -153 362 -76 80 -74 83 20 43z
m-341 -11 c3 -6 16 -8 28 -5 13 3 41 -6 74 -25 28 -16 52 -31 52 -33 0 -2 -30
-9 -67 -16 -124 -21 -231 -83 -313 -180 -27 -33 -52 -56 -55 -50 -3 5 -8 39
-12 75 l-6 65 44 41 c105 98 233 162 255 128z m196 -105 c7 -6 -37 -88 -55
-102 -7 -5 -30 -15 -52 -22 -100 -31 -181 -88 -267 -189 -20 -24 -42 -41 -49
-39 -18 6 -41 79 -34 106 9 36 133 154 201 189 34 18 85 39 115 47 55 15 131
20 141 10z m63 -75 c29 -40 29 -40 10 -72 -64 -113 -184 -220 -306 -276 -97
-44 -214 -65 -324 -58 -122 8 -212 34 -238 69 -27 36 -18 43 30 26 25 -8 84
-13 168 -13 116 0 139 3 210 28 44 16 112 47 150 69 76 45 208 171 240 231 11
20 22 37 26 37 3 0 19 -18 34 -41z m-157 -78 c-13 -35 -230 -183 -245 -167
-11 10 96 100 165 138 68 38 86 45 80 29z m222 -45 c10 -32 8 -39 -30 -100
-137 -216 -405 -340 -661 -306 -150 20 -184 38 -207 108 -11 32 -10 33 11 26
244 -78 480 -43 675 100 60 44 155 149 174 192 13 29 23 23 38 -20z m30 -174
c0 -126 -9 -144 -90 -187 -78 -40 -182 -78 -280 -101 -118 -27 -304 -54 -377
-54 -64 0 -74 3 -91 25 -22 27 -47 83 -40 90 2 2 26 -3 53 -12 37 -12 88 -17
195 -17 131 0 153 3 225 27 144 48 270 139 346 251 24 35 47 62 52 59 4 -2 7
-39 7 -81z m-1324 -433 c97 -30 223 -96 331 -172 51 -36 113 -78 138 -92 25
-15 43 -31 40 -35 -8 -13 -209 -58 -315 -71 -346 -42 -653 89 -598 254 43 128
209 176 404 116z m1986 -220 c20 -11 20 -11 -3 -35 -33 -35 -111 -78 -225
-125 -124 -50 -134 -50 -134 -2 0 69 106 139 243 162 74 12 96 12 119 0z"/>
</g>
</svg>
